<svg width="72" height="38" viewBox="0 0 72 38" fill="none" xmlns="http://www.w3.org/2000/svg">
<g filter="url(#filter0_d_118_39)">
<rect x="10" y="8" width="52" height="18" rx="5" fill="#50A953" fill-opacity="0.8" shape-rendering="crispEdges"/>
<path d="M27.2949 16.752V19.875C27.1895 20.0312 27.0215 20.207 26.791 20.4023C26.5605 20.5938 26.2422 20.7617 25.8359 20.9062C25.4336 21.0469 24.9141 21.1172 24.2773 21.1172C23.7578 21.1172 23.2793 21.0273 22.8418 20.8477C22.4082 20.6641 22.0312 20.3984 21.7109 20.0508C21.3945 19.6992 21.1484 19.2734 20.9727 18.7734C20.8008 18.2695 20.7148 17.6992 20.7148 17.0625V16.4004C20.7148 15.7637 20.7891 15.1953 20.9375 14.6953C21.0898 14.1953 21.3125 13.7715 21.6055 13.4238C21.8984 13.0723 22.2578 12.8066 22.6836 12.627C23.1094 12.4434 23.5977 12.3516 24.1484 12.3516C24.8008 12.3516 25.3457 12.4648 25.7832 12.6914C26.2246 12.9141 26.5684 13.2227 26.8145 13.6172C27.0645 14.0117 27.2246 14.4609 27.2949 14.9648H26.1641C26.1133 14.6562 26.0117 14.375 25.8594 14.1211C25.7109 13.8672 25.498 13.6641 25.2207 13.5117C24.9434 13.3555 24.5859 13.2773 24.1484 13.2773C23.7539 13.2773 23.4121 13.3496 23.123 13.4941C22.834 13.6387 22.5957 13.8457 22.4082 14.1152C22.2207 14.3848 22.0801 14.7109 21.9863 15.0938C21.8965 15.4766 21.8516 15.9082 21.8516 16.3887V17.0625C21.8516 17.5547 21.9082 17.9941 22.0215 18.3809C22.1387 18.7676 22.3047 19.0977 22.5195 19.3711C22.7344 19.6406 22.9902 19.8457 23.2871 19.9863C23.5879 20.127 23.9199 20.1973 24.2832 20.1973C24.6855 20.1973 25.0117 20.1641 25.2617 20.0977C25.5117 20.0273 25.707 19.9453 25.8477 19.8516C25.9883 19.7539 26.0957 19.6621 26.1699 19.5762V17.666H24.1953V16.752H27.2949ZM30.0898 15.6562V21H29.0059V14.6602H30.0605L30.0898 15.6562ZM32.0703 14.625L32.0645 15.6328C31.9746 15.6133 31.8887 15.6016 31.8066 15.5977C31.7285 15.5898 31.6387 15.5859 31.5371 15.5859C31.2871 15.5859 31.0664 15.625 30.875 15.7031C30.6836 15.7812 30.5215 15.8906 30.3887 16.0312C30.2559 16.1719 30.1504 16.3398 30.0723 16.5352C29.998 16.7266 29.9492 16.9375 29.9258 17.168L29.6211 17.3438C29.6211 16.9609 29.6582 16.6016 29.7324 16.2656C29.8105 15.9297 29.9297 15.6328 30.0898 15.375C30.25 15.1133 30.4531 14.9102 30.6992 14.7656C30.9492 14.6172 31.2461 14.543 31.5898 14.543C31.668 14.543 31.7578 14.5527 31.8594 14.5723C31.9609 14.5879 32.0312 14.6055 32.0703 14.625ZM35.5859 21.1172C35.1445 21.1172 34.7441 21.043 34.3848 20.8945C34.0293 20.7422 33.7227 20.5293 33.4648 20.2559C33.2109 19.9824 33.0156 19.6582 32.8789 19.2832C32.7422 18.9082 32.6738 18.498 32.6738 18.0527V17.8066C32.6738 17.291 32.75 16.832 32.9023 16.4297C33.0547 16.0234 33.2617 15.6797 33.5234 15.3984C33.7852 15.1172 34.082 14.9043 34.4141 14.7598C34.7461 14.6152 35.0898 14.543 35.4453 14.543C35.8984 14.543 36.2891 14.6211 36.6172 14.7773C36.9492 14.9336 37.2207 15.1523 37.4316 15.4336C37.6426 15.7109 37.7988 16.0391 37.9004 16.418C38.002 16.793 38.0527 17.2031 38.0527 17.6484V18.1348H33.3184V17.25H36.9688V17.168C36.9531 16.8867 36.8945 16.6133 36.793 16.3477C36.6953 16.082 36.5391 15.8633 36.3242 15.6914C36.1094 15.5195 35.8164 15.4336 35.4453 15.4336C35.1992 15.4336 34.9727 15.4863 34.7656 15.5918C34.5586 15.6934 34.3809 15.8457 34.2324 16.0488C34.084 16.252 33.9688 16.5 33.8867 16.793C33.8047 17.0859 33.7637 17.4238 33.7637 17.8066V18.0527C33.7637 18.3535 33.8047 18.6367 33.8867 18.9023C33.9727 19.1641 34.0957 19.3945 34.2559 19.5938C34.4199 19.793 34.6172 19.9492 34.8477 20.0625C35.082 20.1758 35.3477 20.2324 35.6445 20.2324C36.0273 20.2324 36.3516 20.1543 36.6172 19.998C36.8828 19.8418 37.1152 19.6328 37.3145 19.3711L37.9707 19.8926C37.834 20.0996 37.6602 20.2969 37.4492 20.4844C37.2383 20.6719 36.9785 20.8242 36.6699 20.9414C36.3652 21.0586 36.0039 21.1172 35.5859 21.1172ZM41.9492 21.1172C41.5078 21.1172 41.1074 21.043 40.748 20.8945C40.3926 20.7422 40.0859 20.5293 39.8281 20.2559C39.5742 19.9824 39.3789 19.6582 39.2422 19.2832C39.1055 18.9082 39.0371 18.498 39.0371 18.0527V17.8066C39.0371 17.291 39.1133 16.832 39.2656 16.4297C39.418 16.0234 39.625 15.6797 39.8867 15.3984C40.1484 15.1172 40.4453 14.9043 40.7773 14.7598C41.1094 14.6152 41.4531 14.543 41.8086 14.543C42.2617 14.543 42.6523 14.6211 42.9805 14.7773C43.3125 14.9336 43.584 15.1523 43.7949 15.4336C44.0059 15.7109 44.1621 16.0391 44.2637 16.418C44.3652 16.793 44.416 17.2031 44.416 17.6484V18.1348H39.6816V17.25H43.332V17.168C43.3164 16.8867 43.2578 16.6133 43.1562 16.3477C43.0586 16.082 42.9023 15.8633 42.6875 15.6914C42.4727 15.5195 42.1797 15.4336 41.8086 15.4336C41.5625 15.4336 41.3359 15.4863 41.1289 15.5918C40.9219 15.6934 40.7441 15.8457 40.5957 16.0488C40.4473 16.252 40.332 16.5 40.25 16.793C40.168 17.0859 40.127 17.4238 40.127 17.8066V18.0527C40.127 18.3535 40.168 18.6367 40.25 18.9023C40.3359 19.1641 40.459 19.3945 40.6191 19.5938C40.7832 19.793 40.9805 19.9492 41.2109 20.0625C41.4453 20.1758 41.7109 20.2324 42.0078 20.2324C42.3906 20.2324 42.7148 20.1543 42.9805 19.998C43.2461 19.8418 43.4785 19.6328 43.6777 19.3711L44.334 19.8926C44.1973 20.0996 44.0234 20.2969 43.8125 20.4844C43.6016 20.6719 43.3418 20.8242 43.0332 20.9414C42.7285 21.0586 42.3672 21.1172 41.9492 21.1172ZM46.7656 16.0137V21H45.6816V14.6602H46.707L46.7656 16.0137ZM46.5078 17.5898L46.0566 17.5723C46.0605 17.1387 46.125 16.7383 46.25 16.3711C46.375 16 46.5508 15.6777 46.7773 15.4043C47.0039 15.1309 47.2734 14.9199 47.5859 14.7715C47.9023 14.6191 48.252 14.543 48.6348 14.543C48.9473 14.543 49.2285 14.5859 49.4785 14.6719C49.7285 14.7539 49.9414 14.8867 50.1172 15.0703C50.2969 15.2539 50.4336 15.4922 50.5273 15.7852C50.6211 16.0742 50.668 16.4277 50.668 16.8457V21H49.5781V16.834C49.5781 16.502 49.5293 16.2363 49.4316 16.0371C49.334 15.834 49.1914 15.6875 49.0039 15.5977C48.8164 15.5039 48.5859 15.457 48.3125 15.457C48.043 15.457 47.7969 15.5137 47.5742 15.627C47.3555 15.7402 47.166 15.8965 47.0059 16.0957C46.8496 16.2949 46.7266 16.5234 46.6367 16.7812C46.5508 17.0352 46.5078 17.3047 46.5078 17.5898Z" fill="white"/>
</g>
<defs>
<filter id="filter0_d_118_39" x="0" y="0" width="72" height="38" filterUnits="userSpaceOnUse" color-interpolation-filters="sRGB">
<feFlood flood-opacity="0" result="BackgroundImageFix"/>
<feColorMatrix in="SourceAlpha" type="matrix" values="0 0 0 0 0 0 0 0 0 0 0 0 0 0 0 0 0 0 127 0" result="hardAlpha"/>
<feOffset dy="2"/>
<feGaussianBlur stdDeviation="5"/>
<feComposite in2="hardAlpha" operator="out"/>
<feColorMatrix type="matrix" values="0 0 0 0 0.380392 0 0 0 0 0.592157 0 0 0 0 0.388235 0 0 0 0.6 0"/>
<feBlend mode="normal" in2="BackgroundImageFix" result="effect1_dropShadow_118_39"/>
<feBlend mode="normal" in="SourceGraphic" in2="effect1_dropShadow_118_39" result="shape"/>
</filter>
</defs>
</svg>
